<svg width="35" height="35" viewBox="0 0 35 35" fill="none" xmlns="http://www.w3.org/2000/svg">
<path d="M9.93 0C4.46 0 0 4.46 0 9.93V24.28C0 29.75 4.46 34.21 9.93 34.21H24.28C29.75 34.21 34.21 29.75 34.21 24.28V9.93C34.2 4.46 29.74 0 24.27 0H9.93ZM9.93 2.63H24.28C28.32 2.63 31.58 5.88 31.58 9.93V24.28C31.58 28.32 28.33 31.58 24.28 31.58H9.93C5.89 31.58 2.63 28.33 2.63 24.28V9.93C2.63 5.88 5.88 2.63 9.93 2.63ZM26.97 5.26C25.88 5.26 25 6.14 25 7.23C25 8.32 25.88 9.2 26.97 9.2C28.06 9.2 28.94 8.32 28.94 7.23C28.94 6.14 28.06 5.26 26.97 5.26ZM17.1 7.89C12.03 7.89 7.89 12.03 7.89 17.1C7.89 22.17 12.03 26.31 17.1 26.31C22.17 26.31 26.31 22.17 26.31 17.1C26.31 12.03 22.17 7.89 17.1 7.89ZM17.1 10.52C20.75 10.52 23.68 13.45 23.68 17.1C23.68 20.75 20.75 23.68 17.1 23.68C13.45 23.68 10.52 20.75 10.52 17.1C10.52 13.45 13.45 10.52 17.1 10.52Z" fill="white"/>
</svg>
