<svg width="35" height="31" viewBox="0 0 35 31" fill="none" xmlns="http://www.w3.org/2000/svg">
<path d="M31.3 -0.000173124C30.81 0.0198269 30.35 0.159827 29.95 0.319827C29.58 0.459827 28.26 1.01983 26.16 1.89983C24.06 2.77983 21.27 3.94983 18.29 5.19983C12.34 7.69983 5.66 10.5098 2.24 11.9498C2.12 11.9998 1.64 12.1498 1.12 12.5498C0.59 12.9698 0 13.8398 0 14.7998C0 15.5698 0.39 16.3598 0.85 16.8098C1.32 17.2598 1.79 17.4698 2.18 17.6298C3.33 18.0898 6.9 19.5098 8.45 20.1398C8.99 21.7698 10.27 25.5998 10.57 26.5498C10.81 27.3198 11.05 27.8198 11.38 28.2398C11.54 28.4498 11.74 28.6398 11.98 28.7898C12.07 28.8498 12.17 28.8898 12.28 28.9298C12.29 28.9398 12.31 28.9398 12.32 28.9398L12.28 28.9298C12.31 28.9398 12.34 28.9598 12.37 28.9698C12.42 28.9898 12.45 28.9898 12.52 28.9998C12.75 29.0698 12.99 29.1198 13.2 29.1198C14.13 29.1198 14.7 28.6198 14.7 28.6198L14.74 28.5898L18.76 25.1898L23.68 29.7398C23.77 29.8598 24.47 30.8198 26.1 30.8198C27.07 30.8198 27.84 30.3398 28.33 29.8398C28.82 29.3398 29.13 28.8198 29.27 28.1198V28.0998C29.37 27.5998 34.09 3.90983 34.09 3.90983L34.08 3.94983C34.23 3.29983 34.27 2.65983 34.1 2.01983C33.93 1.37983 33.46 0.749827 32.9 0.419827C32.34 0.0898269 31.79 -0.0201731 31.3 -0.000173124ZM30.62 3.74983C30.43 4.67983 26.23 25.7898 25.96 27.1898L21.08 22.6798C19.82 21.5198 17.86 21.4798 16.55 22.5798L14.06 24.6898L15.39 19.4898C15.39 19.4898 24.56 10.2098 25.11 9.66983C25.55 9.23983 25.65 9.08983 25.65 8.93983C25.65 8.73983 25.55 8.59983 25.31 8.59983C25.1 8.59983 24.81 8.79983 24.65 8.89983C22.69 10.1198 14.28 14.9198 10.2 17.2298C10.05 17.1398 9.9 17.0398 9.73 16.9798C8.39 16.4498 5.83 15.4198 4.32 14.8198C7.87 13.3298 13.95 10.7698 19.61 8.38983C22.58 7.13983 25.37 5.96983 27.47 5.08983C29.25 4.31983 30.18 3.92983 30.62 3.74983ZM25.91 27.4298V27.4398C25.91 27.4298 25.91 27.4398 25.91 27.4298Z" fill="#FFFDFD"/>
</svg>
