<svg width="35" height="35" viewBox="0 0 35 35" fill="none" xmlns="http://www.w3.org/2000/svg">
<path d="M17.34 0C7.77 0 0 7.77 0 17.34C0 20.38 0.8 23.23 2.17 25.71L0.04 33.42C-0.16 34.14 0.54 34.84 1.26 34.64L8.97 32.51C11.45 33.88 14.3 34.68 17.34 34.68C26.91 34.68 34.68 26.91 34.68 17.34C34.68 7.77 26.91 0 17.34 0Z" fill="#020919"/>
<path d="M17.34 0.990234C26.38 0.990234 33.69 8.30023 33.69 17.3402C33.69 26.3802 26.38 33.6902 17.34 33.6902C14.4 33.6902 11.65 32.9102 9.25998 31.5502C9.14998 31.4802 9.00998 31.4702 8.87998 31.5002L0.98998 33.6802L3.16998 25.7902C3.20998 25.6602 3.18998 25.5302 3.11998 25.4102C1.75998 23.0302 0.97998 20.2702 0.97998 17.3302C0.98998 8.31023 8.30998 0.990234 17.34 0.990234Z" fill="white"/>
<path d="M10.21 7.41992C9.79999 7.41992 9.16999 7.57992 8.63999 8.15992C8.20999 8.63992 6.79999 10.0099 6.79999 12.6299C6.79999 15.2899 8.67999 17.7599 8.91999 18.0899C8.92999 18.0999 9.01999 18.2399 9.13999 18.4199C9.25999 18.5999 9.42999 18.8499 9.63999 19.1399C10.06 19.7199 10.66 20.4899 11.41 21.3199C12.91 22.9699 15.03 24.8399 17.65 25.8899C19.79 26.7399 21.09 27.0899 21.99 27.2099C22.89 27.3299 23.4 27.2199 23.83 27.1799C24.4 27.1299 25.15 26.7999 25.86 26.3299C26.57 25.8599 27.24 25.2599 27.49 24.5499C27.71 23.9299 27.82 23.3499 27.86 22.8999C27.88 22.6699 27.88 22.4699 27.87 22.3099C27.86 22.1499 27.85 22.0199 27.76 21.8799C27.65 21.6899 27.48 21.5799 27.3 21.4799C27.12 21.3799 26.91 21.2799 26.66 21.1599C26.4 21.0299 25.66 20.6599 24.92 20.2999C24.18 19.9399 23.47 19.5999 23.18 19.4899C22.94 19.3999 22.7 19.3199 22.43 19.3499C22.15 19.3799 21.89 19.5699 21.69 19.8699C21.39 20.3299 20.41 21.4999 20.12 21.8399C20 21.9799 19.93 22.0099 19.85 22.0199C19.77 22.0299 19.63 22.0099 19.4 21.8899C19.11 21.7399 18.61 21.5599 17.92 21.1799C17.23 20.8099 16.37 20.2499 15.42 19.3999C13.97 18.0899 12.96 16.4399 12.68 15.9399C12.57 15.7399 12.58 15.6699 12.61 15.5899C12.64 15.5099 12.73 15.3999 12.85 15.2799C13.11 15.0199 13.38 14.6599 13.62 14.3699C13.89 14.0399 14 13.7899 14.16 13.4599C14.37 13.0199 14.26 12.5899 14.12 12.2999C14.1 12.2699 14.01 12.0499 13.9 11.7599C13.78 11.4699 13.64 11.0999 13.48 10.7099C13.16 9.91992 12.81 9.03992 12.58 8.52992C12.38 8.06992 12.14 7.78992 11.88 7.62992C11.62 7.47992 11.36 7.46992 11.18 7.45992C10.89 7.41992 10.55 7.41992 10.21 7.41992Z" fill="white"/>
<path d="M10.21 8.04004C10.55 8.04004 10.88 8.04004 11.16 8.05004C11.34 8.06004 11.46 8.06004 11.58 8.13004C11.7 8.20004 11.86 8.35004 12.03 8.74004C12.25 9.23004 12.61 10.12 12.92 10.9C13.08 11.29 13.23 11.66 13.34 11.95C13.46 12.24 13.53 12.43 13.58 12.53C13.69 12.75 13.74 12.91 13.62 13.15C13.45 13.5 13.38 13.67 13.16 13.93C12.9 14.24 12.62 14.61 12.42 14.8C12.29 14.93 12.13 15.09 12.03 15.34C11.94 15.59 11.97 15.91 12.15 16.22C12.45 16.75 13.47 18.44 15.01 19.83C15.99 20.72 16.9 21.3 17.63 21.69C18.36 22.08 18.92 22.3 19.13 22.4C19.41 22.54 19.67 22.62 19.93 22.59C20.19 22.56 20.42 22.4 20.59 22.2C20.89 21.85 21.84 20.73 22.21 20.17C22.35 19.96 22.42 19.94 22.51 19.93C22.6 19.92 22.76 19.96 22.98 20.04C23.16 20.11 23.92 20.46 24.66 20.82C25.4 21.18 26.14 21.55 26.39 21.68C26.65 21.81 26.86 21.91 27.01 21.99C27.15 22.07 27.22 22.13 27.23 22.16C27.21 22.12 27.24 22.21 27.25 22.33C27.26 22.45 27.26 22.62 27.24 22.82C27.21 23.22 27.11 23.75 26.91 24.32C26.74 24.8 26.17 25.37 25.52 25.79C24.87 26.22 24.13 26.51 23.77 26.54C23.28 26.58 22.89 26.68 22.07 26.57C21.25 26.46 19.99 26.13 17.87 25.28C15.38 24.28 13.32 22.48 11.86 20.87C11.13 20.07 10.55 19.32 10.14 18.75C9.92998 18.46 9.76998 18.22 9.64998 18.05C9.52998 17.87 9.45998 17.76 9.40998 17.69C9.14998 17.34 7.41998 14.96 7.41998 12.6C7.41998 10.2 8.61998 9.09004 9.10998 8.56004C9.49998 8.14004 9.95998 8.04004 10.21 8.04004Z" fill="#020919"/>
</svg>
