<svg width="35" height="35" fill="none" xmlns="http://www.w3.org/2000/svg"><path d="M9.93 0C4.46 0 0 4.46 0 9.93v14.35c0 5.47 4.46 9.93 9.93 9.93h14.35c5.47 0 9.93-4.46 9.93-9.93V9.93C34.2 4.46 29.74 0 24.27 0H9.93zm0 2.63h14.35c4.04 0 7.3 3.25 7.3 7.3v14.35c0 4.04-3.25 7.3-7.3 7.3H9.93c-4.04 0-7.3-3.25-7.3-7.3V9.93c0-4.05 3.25-7.3 7.3-7.3zm17.04 2.63c-1.09 0-1.97.88-1.97 1.97 0 1.09.88 1.97 1.97 1.97 1.09 0 1.97-.88 1.97-1.97 0-1.09-.88-1.97-1.97-1.97zM17.1 7.89c-5.07 0-9.21 4.14-9.21 9.21 0 5.07 4.14 9.21 9.21 9.21 5.07 0 9.21-4.14 9.21-9.21 0-5.07-4.14-9.21-9.21-9.21zm0 2.63a6.56 6.56 0 016.58 6.58 6.56 6.56 0 01-6.58 6.58 6.56 6.56 0 01-6.58-6.58 6.56 6.56 0 016.58-6.58z" fill="#fff"/></svg>