<svg width="35" height="31" fill="none" xmlns="http://www.w3.org/2000/svg"><path d="M31.3 0c-.49.02-.95.16-1.35.32-.37.14-1.69.7-3.79 1.58l-7.87 3.3c-5.95 2.5-12.63 5.31-16.05 6.75-.12.05-.6.2-1.12.6C.59 12.97 0 13.84 0 14.8c0 .77.39 1.56.85 2.01.47.45.94.66 1.33.82 1.15.46 4.72 1.88 6.27 2.51.54 1.63 1.82 5.46 2.12 6.41.24.77.48 1.27.81 1.69.16.21.36.4.6.55.09.06.19.1.3.14.01.01.03.01.04.01l-.04-.01c.03.01.06.03.09.04.05.02.08.02.15.03.23.07.47.12.68.12.93 0 1.5-.5 1.5-.5l.04-.03 4.02-3.4 4.92 4.55c.09.12.79 1.08 2.42 1.08.97 0 1.74-.48 2.23-.98s.8-1.02.94-1.72v-.02l4.82-24.19-.01.04c.15-.65.19-1.29.02-1.93-.17-.64-.64-1.27-1.2-1.6A2.89 2.89 0 0031.3 0zm-.68 3.75c-.19.93-4.39 22.04-4.66 23.44l-4.88-4.51a3.451 3.451 0 00-4.53-.1l-2.49 2.11 1.33-5.2s9.17-9.28 9.72-9.82c.44-.43.54-.58.54-.73 0-.2-.1-.34-.34-.34-.21 0-.5.2-.66.3-1.96 1.22-10.37 6.02-14.45 8.33-.15-.09-.3-.19-.47-.25-1.34-.53-3.9-1.56-5.41-2.16 3.55-1.49 9.63-4.05 15.29-6.43 2.97-1.25 5.76-2.42 7.86-3.3 1.78-.77 2.71-1.16 3.15-1.34zm-4.71 23.68z" fill="#FFFDFD"/></svg>