<svg width="35" height="35" fill="none" xmlns="http://www.w3.org/2000/svg"><path d="M17.34 0C7.77 0 0 7.77 0 17.34c0 3.04.8 5.89 2.17 8.37L.04 33.42c-.2.72.5 1.42 1.22 1.22l7.71-2.13c2.48 1.37 5.33 2.17 8.37 2.17 9.57 0 17.34-7.77 17.34-17.34S26.91 0 17.34 0z" fill="#020919"/><path d="M17.34.99c9.04 0 16.35 7.31 16.35 16.35 0 9.04-7.31 16.35-16.35 16.35-2.94 0-5.69-.78-8.08-2.14a.5.5 0 00-.38-.05L.99 33.68l2.18-7.89c.04-.13.02-.26-.05-.38a16.241 16.241 0 01-2.14-8.08C.99 8.31 8.31.99 17.34.99z" fill="#fff"/><path d="M10.21 7.42c-.41 0-1.04.16-1.57.74-.43.48-1.84 1.85-1.84 4.47 0 2.66 1.88 5.13 2.12 5.46.01.01.1.15.22.33.12.18.29.43.5.72.42.58 1.02 1.35 1.77 2.18 1.5 1.65 3.62 3.52 6.24 4.57 2.14.85 3.44 1.2 4.34 1.32.9.12 1.41.01 1.84-.03.57-.05 1.32-.38 2.03-.85.71-.47 1.38-1.07 1.63-1.78.22-.62.33-1.2.37-1.65.02-.23.02-.43.01-.59-.01-.16-.02-.29-.11-.43-.11-.19-.28-.3-.46-.4-.18-.1-.39-.2-.64-.32-.26-.13-1-.5-1.74-.86s-1.45-.7-1.74-.81c-.24-.09-.48-.17-.75-.14-.28.03-.54.22-.74.52-.3.46-1.28 1.63-1.57 1.97-.12.14-.19.17-.27.18-.08.01-.22-.01-.45-.13-.29-.15-.79-.33-1.48-.71-.69-.37-1.55-.93-2.5-1.78-1.45-1.31-2.46-2.96-2.74-3.46-.11-.2-.1-.27-.07-.35.03-.08.12-.19.24-.31.26-.26.53-.62.77-.91.27-.33.38-.58.54-.91.21-.44.1-.87-.04-1.16-.02-.03-.11-.25-.22-.54-.12-.29-.26-.66-.42-1.05-.32-.79-.67-1.67-.9-2.18-.2-.46-.44-.74-.7-.9-.26-.15-.52-.16-.7-.17-.29-.04-.63-.04-.97-.04z" fill="#fff"/><path d="M10.21 8.04c.34 0 .67 0 .95.01.18.01.3.01.42.08s.28.22.45.61c.22.49.58 1.38.89 2.16.16.39.31.76.42 1.05.12.29.19.48.24.58.11.22.16.38.04.62-.17.35-.24.52-.46.78-.26.31-.54.68-.74.87-.13.13-.29.29-.39.54-.09.25-.06.57.12.88.3.53 1.32 2.22 2.86 3.61.98.89 1.89 1.47 2.62 1.86.73.39 1.29.61 1.5.71.28.14.54.22.8.19s.49-.19.66-.39c.3-.35 1.25-1.47 1.62-2.03.14-.21.21-.23.3-.24.09-.01.25.03.47.11.18.07.94.42 1.68.78.74.36 1.48.73 1.73.86.26.13.47.23.62.31.14.08.21.14.22.17-.02-.04.01.05.02.17.01.12.01.29-.01.49-.03.4-.13.93-.33 1.5-.17.48-.74 1.05-1.39 1.47-.65.43-1.39.72-1.75.75-.49.04-.88.14-1.7.03-.82-.11-2.08-.44-4.2-1.29-2.49-1-4.55-2.8-6.01-4.41-.73-.8-1.31-1.55-1.72-2.12-.21-.29-.37-.53-.49-.7-.12-.18-.19-.29-.24-.36-.26-.35-1.99-2.73-1.99-5.09 0-2.4 1.2-3.51 1.69-4.04.39-.42.85-.52 1.1-.52z" fill="#020919"/></svg>